# xmcd
#
# Track frame offsets: 
#        150
#        13191
#        26439
#        31994
#        58134
#        65368
#        86392
#        107610
#        131338
#        150853
#        173410
#        182652
#
# Disc length: 2693 seconds
#
# Revision: 0
# Processed by: cddbd v1.5.2PL0 Copyright (c) Steve Scherf et al.
# Submitted via: ExactAudioCopy v1.0b1
#
DISCID=840a830c
DTITLE=Jodarok - Valvo viiteen nuku kolmeen
DYEAR=2011
DGENRE=Hip-Hop
TTITLE0=Lokki 1980
TTITLE1=Her‰‰ Her‰‰
TTITLE2=Peittoo kiskoo
TTITLE3=Alaskaan (feat. Stepa)
TTITLE4=Matukkapoika
TTITLE5=Mit‰ tapahtu (feat. Seyed Ali)
TTITLE6=Anna riikinkukon lent‰‰
TTITLE7=Ei t‰nne kett‰‰n tuu (feat. Tykopaatti)
TTITLE8=Kaukaa
TTITLE9=Uudempi ja paras
TTITLE10=Esimerkki
TTITLE11=Just mun tuuria (feat. Super Janne)
EXTD=
EXTT0=
EXTT1=
EXTT2=
EXTT3=
EXTT4=
EXTT5=
EXTT6=
EXTT7=
EXTT8=
EXTT9=
EXTT10=
EXTT11=
PLAYORDER=
